<svg xmlns="http://www.w3.org/2000/svg" data-name="Layer 1" viewBox="0 0 338 249.375" x="0px" y="0px"><title>Cap 5</title><path d="M200.66,184.67a5,5,0,0,1-1.9-.37L103,145v75.16s33.67,20.33,98.67,20.33c62.73,0,95.33-20.33,95.33-20.33V145.55l-94.44,38.74A5,5,0,0,1,200.66,184.67Z" transform="translate(-31.67 -41)"/><path d="M200.66,41l-169,69.34,33.67,13.81c1.18-2.35,2.32-4.46,3.5-6.61l.92.31c-2.47,7.42-4.54,14.39-7.5,30.58l-.07.36c-7.28,40-5.74,40.71-4.33,47a25.7,25.7,0,0,0,12.28,3.33c6.72,0,9.75-3.33,9.75-3.33-4.59-8.65-5.9-9.65-1.27-44.32l.17-1.26c2.07-15.37,2-19.22,4.9-29.81h1.06a106.71,106.71,0,0,0-1,11.3l116.91,48,169-69.33Z" transform="translate(-31.67 -41)"/><text x="0" y="214.5" fill="#000000" font-size="5px" font-weight="bold" font-family="'Helvetica Neue', Helvetica, Arial-Unicode, Arial, Sans-serif">Created by Rob Crosswell</text><text x="0" y="219.5" fill="#000000" font-size="5px" font-weight="bold" font-family="'Helvetica Neue', Helvetica, Arial-Unicode, Arial, Sans-serif">from the Noun Project</text></svg>