<svg xmlns="http://www.w3.org/2000/svg" xmlns:xlink="http://www.w3.org/1999/xlink" version="1.1" x="0px" y="0px" viewBox="0 0 100 125" style="enable-background:new 0 0 100 100;" xml:space="preserve"><g><path d="M79.2,85.8c6.6,0,12-5.4,12-12V26.2c0-6.6-5.4-12-12-12H21.8c-6.6,0-12,5.4-12,12v47.7c0,6.6,5.4,12,12,12H79.2z M71.1,52   h16.1v13.4H71.1V52z M87.2,48H71.1V34.6h16.1V48z M67.1,48H33.8V18.2h33.3V48z M29.8,48H13.8V34.6h16.1V48z M13.8,52h16.1v13.4   H13.8V52z M33.8,52h33.3v29.8H33.8V52z M79.2,81.8h-8.1V69.4h16.1v4.4C87.2,78.2,83.6,81.8,79.2,81.8z M87.2,26.2v4.4H71.1V18.2   h8.1C83.6,18.2,87.2,21.8,87.2,26.2z M21.8,18.2h8.1v12.4H13.8v-4.4C13.8,21.8,17.4,18.2,21.8,18.2z M13.8,73.8v-4.4h16.1v12.4   h-8.1C17.4,81.8,13.8,78.2,13.8,73.8z"/></g><text x="0" y="115" fill="#000000" font-size="5px" font-weight="bold" font-family="'Helvetica Neue', Helvetica, Arial-Unicode, Arial, Sans-serif">Created by Jivan</text><text x="0" y="120" fill="#000000" font-size="5px" font-weight="bold" font-family="'Helvetica Neue', Helvetica, Arial-Unicode, Arial, Sans-serif">from the Noun Project</text></svg>