<svg xmlns="http://www.w3.org/2000/svg" viewBox="0 0 35 65" x="0px" y="0px"><title>Asset 29 1</title><g data-name="Layer 2"><g data-name="Layer 1"><path d="M13,0a1,1,0,0,0-1,1V19a1,1,0,0,1-1,1H10V1A1,1,0,0,0,8,1V20H6V1A1,1,0,0,0,4,1V20H3a1,1,0,0,1-1-1V1A1,1,0,0,0,0,1V19a3,3,0,0,0,3,3V48a4,4,0,0,0,8,0V22a3,3,0,0,0,3-3V1A1,1,0,0,0,13,0Z"/><path d="M34,1h0A11,11,0,0,0,23,12V32a1,1,0,0,0,1,1h3V51a1,1,0,0,0,1,1h6a1,1,0,0,0,1-1V2A1,1,0,0,0,34,1Z"/></g></g><text x="0" y="67" fill="#000000" font-size="5px" font-weight="bold" font-family="'Helvetica Neue', Helvetica, Arial-Unicode, Arial, Sans-serif">Created by Makarenko Andrey</text><text x="0" y="72" fill="#000000" font-size="5px" font-weight="bold" font-family="'Helvetica Neue', Helvetica, Arial-Unicode, Arial, Sans-serif">from the Noun Project</text></svg>