<svg xmlns="http://www.w3.org/2000/svg" xmlns:xlink="http://www.w3.org/1999/xlink" version="1.1" x="0px" y="0px" viewBox="0 0 100 125" enable-background="new 0 0 100 100" xml:space="preserve"><path d="M78.984,7.555c-0.178-0.037-0.345-0.038-0.395-0.038c-0.003,0-0.006,0-0.009,0v0h-28.58H21.422c0.009,0.001,0.001,0-0.011,0  c-0.051,0.001-0.216,0.001-0.395,0.038c-0.154,0.04-0.432,0.092-0.478,0.43c0,0.002-0.002,0.021-0.002,0.051  c0.005,0.378,0.203,0.721,0.39,0.975c2.248,3.001,8.655,11.561,14.59,19.565c5.925,7.987,11.416,15.49,11.727,16.191  c0.833,1.342,1.443,3.105,1.569,5.147c0.022,2.864,0.03,6.021,0.03,9.235c0,9.764-0.082,20.066-0.112,24.7  c-0.008,2.898-2.783,4.565-5.98,5.511c-3.178,0.939-6.681,1.132-7.899,1.176l-0.093,0.004l-0.065,0.065  c-0.337,0.333-0.479,0.663-0.478,0.96c0.013,0.583,0.479,0.861,0.494,0.878l0.059,0.039h15.232h15.231l0.06-0.039  c0.016-0.017,0.48-0.295,0.493-0.878c0.001-0.297-0.142-0.628-0.477-0.96l-0.066-0.065l-0.092-0.004  c-1.219-0.043-4.721-0.236-7.9-1.176c-3.196-0.946-5.972-2.613-5.979-5.511c-0.032-4.636-0.114-14.951-0.114-24.723  c0-3.207,0.008-6.356,0.031-9.225c0.126-2.029,0.736-3.792,1.555-5.108l-0.2-0.124l0.214,0.098  c0.311-0.701,5.803-8.204,11.728-16.191c5.934-8.004,12.342-16.565,14.59-19.566c0.186-0.254,0.383-0.596,0.388-0.974  c0-0.019,0-0.034,0-0.042C79.416,7.646,79.139,7.596,78.984,7.555z"/><text x="0" y="115" fill="#000000" font-size="5px" font-weight="bold" font-family="'Helvetica Neue', Helvetica, Arial-Unicode, Arial, Sans-serif">Created by Jacqueline Fernandes</text><text x="0" y="120" fill="#000000" font-size="5px" font-weight="bold" font-family="'Helvetica Neue', Helvetica, Arial-Unicode, Arial, Sans-serif">from the Noun Project</text></svg>