<svg xmlns:dc="http://purl.org/dc/elements/1.1/" xmlns:cc="http://creativecommons.org/ns#" xmlns:rdf="http://www.w3.org/1999/02/22-rdf-syntax-ns#" xmlns:svg="http://www.w3.org/2000/svg" xmlns="http://www.w3.org/2000/svg" xmlns:sodipodi="http://sodipodi.sourceforge.net/DTD/sodipodi-0.dtd" xmlns:inkscape="http://www.inkscape.org/namespaces/inkscape" version="1.1" x="0px" y="0px" viewBox="0 0 100 125"><g transform="translate(0,-952.36218)"><path style="color:#000000;enable-background:accumulate;" d="m 49.946122,971.36241 c -0.41963,0.009 -0.81114,0.14803 -1.1875,0.40625 l -38,30.00004 c -0.8742903,0.7021 -0.9983303,1.9978 -0.34375,2.8437 0.64516,0.8338 2.01747,0.9673 2.84375,0.3125 l 36.75,-28.99999 36.75,28.99999 c 0.826283,0.6548 2.160853,0.5162 2.812503,-0.3125 0.64676,-0.8225 0.57722,-2.1888 -0.3125,-2.8437 l -16.250003,-12.84379 0,-17.5625 -8,0 0,11.25 -13.75,-10.84375 c -0.44512,-0.29323 -0.89287,-0.415 -1.3125,-0.40625 z m 0.0625,8 -27,20.99999 0,33 19,0 0,-20 16,0 0,20 19,0 0,-33 -27,-20.99999 z" fill="#000000" stroke="none" marker="none" visibility="visible" display="inline" overflow="visible"/></g><text x="0" y="115" fill="#000000" font-size="5px" font-weight="bold" font-family="'Helvetica Neue', Helvetica, Arial-Unicode, Arial, Sans-serif">Created by il Capitano</text><text x="0" y="120" fill="#000000" font-size="5px" font-weight="bold" font-family="'Helvetica Neue', Helvetica, Arial-Unicode, Arial, Sans-serif">from the Noun Project</text></svg>